<svg width="107" height="127" viewBox="0 0 107 127" fill="none" xmlns="http://www.w3.org/2000/svg">
<g filter="url(#filter0_d_2_888)">
<path d="M10.4219 10H97V115.386C97 116.116 96.2431 116.6 95.5805 116.293L54.55 97.3297C54.0177 97.0837 53.4042 97.0837 52.8719 97.3297L11.8414 116.293C11.1787 116.6 10.4219 116.116 10.4219 115.386V10Z" fill="#FF6F00"/>
</g>
<path d="M46.8891 36.3789C48.2291 36.7389 49.3591 37.4489 50.2791 38.5089C51.1991 39.5689 51.6591 40.8789 51.6591 42.4389C51.6591 43.7589 51.3191 44.9389 50.6391 45.9789C49.9791 47.0189 49.0791 47.8289 47.9391 48.4089C46.7991 48.9889 45.5491 49.2789 44.1891 49.2789C42.5491 49.2789 41.1091 48.8689 39.8691 48.0489C38.6291 47.2289 37.6691 46.1389 36.9891 44.7789L39.8091 42.7989C40.4091 43.6989 41.0391 44.3789 41.6991 44.8389C42.3591 45.2989 43.1491 45.5289 44.0691 45.5289C45.0691 45.5289 45.8891 45.2589 46.5291 44.7189C47.1891 44.1589 47.5191 43.4089 47.5191 42.4689C47.5191 41.5489 47.1691 40.8489 46.4691 40.3689C45.7891 39.8689 44.7891 39.6189 43.4691 39.6189H40.9791V38.5689L45.1191 32.7789H38.5191V29.1189H51.2691V30.1989L46.8891 36.3789ZM62.5439 49.2789C60.8239 49.2789 59.3739 48.8189 58.1939 47.8989C57.0139 46.9789 56.1339 45.7389 55.5539 44.1789C54.9739 42.5989 54.6839 40.8289 54.6839 38.8689C54.6839 35.8489 55.3539 33.4089 56.6939 31.5489C58.0339 29.6889 59.9839 28.7589 62.5439 28.7589C65.1039 28.7589 67.0439 29.6889 68.3639 31.5489C69.7039 33.4089 70.3739 35.8489 70.3739 38.8689C70.3739 40.8289 70.0839 42.5989 69.5039 44.1789C68.9239 45.7389 68.0439 46.9789 66.8639 47.8989C65.7039 48.8189 64.2639 49.2789 62.5439 49.2789ZM66.2039 38.8989C66.2039 36.7989 65.9039 35.2089 65.3039 34.1289C64.7239 33.0489 63.8039 32.5089 62.5439 32.5089C61.2639 32.5089 60.3239 33.0489 59.7239 34.1289C59.1439 35.2089 58.8539 36.7989 58.8539 38.8989C58.8539 43.3189 60.0839 45.5289 62.5439 45.5289C64.9839 45.5289 66.2039 43.3189 66.2039 38.8989ZM45.3895 59.0689V73.9189H41.3695V62.4889H37.3795L37.3495 63.6289C37.2895 66.1689 37.0895 68.1989 36.7495 69.7189C36.4095 71.2389 35.8695 72.3689 35.1295 73.1089C34.4095 73.8289 33.4295 74.1889 32.1895 74.1889C31.6095 74.1889 31.0995 74.0989 30.6595 73.9189V70.5889C30.8195 70.6289 31.0095 70.6489 31.2295 70.6489C31.7895 70.6489 32.2295 70.3789 32.5495 69.8389C32.8895 69.2989 33.1395 68.4489 33.2995 67.2889C33.4595 66.1289 33.5495 64.5689 33.5695 62.6089L33.5995 59.0689H45.3895ZM63.1561 67.8589H52.7461C52.9861 68.7989 53.4661 69.5289 54.1861 70.0489C54.9261 70.5489 55.8361 70.7989 56.9161 70.7989C58.3761 70.7989 59.7561 70.2989 61.0561 69.2989L62.7361 72.0589C60.9761 73.5389 58.9961 74.2789 56.7961 74.2789C55.2561 74.2789 53.8661 73.9389 52.6261 73.2589C51.3861 72.5789 50.4161 71.6489 49.7161 70.4689C49.0161 69.2689 48.6661 67.9489 48.6661 66.5089C48.6661 65.0689 49.0061 63.7589 49.6861 62.5789C50.3661 61.3789 51.2961 60.4389 52.4761 59.7589C53.6761 59.0789 54.9961 58.7389 56.4361 58.7389C57.7961 58.7389 59.0061 59.0489 60.0661 59.6689C61.1261 60.2689 61.9461 61.0989 62.5261 62.1589C63.1261 63.1989 63.4261 64.3589 63.4261 65.6389C63.4261 66.3589 63.3361 67.0989 63.1561 67.8589ZM56.2861 62.0089C55.4261 62.0089 54.6761 62.2789 54.0361 62.8189C53.3961 63.3589 52.9661 64.0889 52.7461 65.0089H59.4961C59.4761 64.0889 59.1561 63.3589 58.5361 62.8189C57.9161 62.2789 57.1661 62.0089 56.2861 62.0089ZM69.2925 62.4889H64.7325V59.0689H77.9025V62.4889H73.3125V73.9189H69.2925V62.4889Z" fill="white"/>
<defs>
<filter id="filter0_d_2_888" x="0.421875" y="0" width="106.578" height="126.387" filterUnits="userSpaceOnUse" color-interpolation-filters="sRGB">
<feFlood flood-opacity="0" result="BackgroundImageFix"/>
<feColorMatrix in="SourceAlpha" type="matrix" values="0 0 0 0 0 0 0 0 0 0 0 0 0 0 0 0 0 0 127 0" result="hardAlpha"/>
<feOffset/>
<feGaussianBlur stdDeviation="5"/>
<feComposite in2="hardAlpha" operator="out"/>
<feColorMatrix type="matrix" values="0 0 0 0 0 0 0 0 0 0 0 0 0 0 0 0 0 0 0.2 0"/>
<feBlend mode="normal" in2="BackgroundImageFix" result="effect1_dropShadow_2_888"/>
<feBlend mode="normal" in="SourceGraphic" in2="effect1_dropShadow_2_888" result="shape"/>
</filter>
</defs>
</svg>
