<svg width="190" height="22" viewBox="0 0 190 22" fill="none" xmlns="http://www.w3.org/2000/svg">
<path d="M2.99031 15.2249L8.43341 0.727173C2.47192 2.11391 -1.02722 7.78692 0.268759 13.4599C1.69433 19.0069 7.65582 22.6628 13.3581 21.4022C16.5981 20.6458 19.19 18.6287 20.7452 15.8552C14.2653 18.2505 6.87823 18.2505 2.99031 15.2249Z" fill="#F6911E"/>
<path d="M16.4686 12.4508C18.283 12.5769 20.0974 12.4508 21.7821 11.6944C21.7821 11.4423 21.7821 11.1902 21.7821 10.938C21.7821 8.66882 21.0045 6.52568 19.7086 4.76074L16.4686 12.4508Z" fill="#F6911E"/>
<path d="M12.7104 13.3335L17.5055 2.49175C16.9871 2.11355 16.5983 1.86142 16.0799 1.73535L11.0256 13.9639C13.3584 14.9724 17.7647 14.216 21.6526 13.0814C21.7822 12.9553 21.7822 12.7032 21.7822 12.451C18.9311 13.2074 14.784 13.9639 12.7104 13.3335Z" fill="#F6911E"/>
<path d="M7.91522 14.216L13.3583 0.600767C12.8399 0.4747 12.3215 0.4747 11.8031 0.348633L5.97125 14.8463C9.21119 16.9895 15.3023 16.6113 21.1342 14.8463C21.2638 14.5942 21.3934 14.3421 21.3934 13.9639C18.0238 15.3506 9.85918 16.107 7.91522 14.216Z" fill="#F6911E"/>
<path d="M100.707 11.5684H103.04V5.13902C103.04 4.76081 102.91 4.50868 102.78 4.13048C102.78 3.87835 102.521 3.62621 102.392 3.37408C102.262 3.12194 102.003 2.99588 101.614 2.86981C101.355 2.61768 101.096 2.61768 100.707 2.61768C100.188 2.61768 99.67 2.86981 99.2812 3.12194C98.8924 3.37408 98.6332 3.87835 98.374 4.25655L96.1709 9.55136L94.0973 4.50868C93.9677 4.25655 93.7085 4.00441 93.5789 3.75228C93.4493 3.50014 93.1901 3.37408 93.0605 3.12194C92.9309 2.99588 92.6717 2.86981 92.4125 2.74374C91.8942 2.61768 91.2462 2.61768 90.5982 2.74374C90.339 2.86981 90.0798 2.99588 89.9502 3.24801C89.4318 3.62621 89.1726 4.25655 89.1726 4.88688V11.5684H91.5054V5.13902L93.7085 9.8035C93.7085 10.0556 93.9677 10.3078 94.0973 10.5599C94.3565 10.812 94.4861 11.0642 94.6157 11.1902C94.8749 11.3163 95.1341 11.5684 95.3933 11.6945C95.6525 11.8206 95.9117 11.8206 96.1709 11.8206C96.4301 11.8206 96.8189 11.8206 97.0781 11.6945C97.3373 11.5684 97.4669 11.4424 97.5964 11.3163C97.8556 11.0642 97.9852 10.812 98.1148 10.5599C98.2444 10.3078 98.374 10.0556 98.5036 9.67743L100.707 4.88688V11.5684Z" fill="#768C98"/>
<path d="M117.295 11.6945V9.29923H106.539V8.29069H117.295V6.02148H106.539V5.01295H117.295V2.61768H107.575C107.057 2.61768 106.668 2.61768 106.279 2.74374C105.891 2.86981 105.502 3.12194 105.243 3.37408C104.983 3.62621 104.724 3.87835 104.465 4.25655C104.335 4.76081 104.206 5.01295 104.206 5.51722V8.66889C104.206 9.17316 104.335 9.55136 104.465 9.92956C104.724 10.3078 104.983 10.5599 105.243 10.812C105.502 11.0642 105.891 11.3163 106.279 11.4424C106.539 11.5684 107.057 11.6945 107.446 11.6945H117.295Z" fill="#768C98"/>
<path d="M88.0067 11.6945V9.29923H77.2501V8.29069H88.0067V6.02148H77.2501V5.01295H88.0067V2.61768H78.2868C77.7684 2.61768 77.3797 2.61768 76.8613 2.74374C76.6021 2.86981 76.2133 3.12194 75.8245 3.37408C75.5653 3.62621 75.3061 3.87835 75.1765 4.25655C74.9173 4.76081 74.9173 5.01295 74.9173 5.51722V8.66889C74.9173 9.17316 74.9173 9.55136 75.1765 9.92956C75.3061 10.3078 75.5653 10.5599 75.8245 10.812C76.2133 11.0642 76.6021 11.3163 76.8613 11.4424C77.2501 11.5684 77.6388 11.6945 78.1572 11.6945H88.0067Z" fill="#768C98"/>
<path d="M47.7012 11.4424C48.09 11.5684 48.4788 11.6945 48.9972 11.6945H58.717V9.29923H48.09V8.29069H58.8466V6.02148H48.09V5.01295H58.8466V2.61768H48.9972C48.4788 2.61768 48.09 2.61768 47.7012 2.74374C47.3124 2.86981 46.9236 3.12194 46.6644 3.37408C46.2757 3.62621 46.1461 3.87835 46.0165 4.25655C45.7573 4.76081 45.7573 5.01295 45.7573 5.51722V8.66889C45.7573 9.17316 45.7573 9.55136 46.0165 9.92956C46.1461 10.3078 46.4053 10.5599 46.6644 10.812C47.0532 11.0642 47.442 11.3163 47.7012 11.4424Z" fill="#768C98"/>
<path d="M44.4612 2.61768H41.9989V9.42529H39.1477V2.61768H36.5558V9.42529H33.8342V2.61768H31.3719V11.6945H44.4612V2.61768Z" fill="#768C98"/>
<path d="M62.4757 5.01295H71.1587V6.02148H62.4757V5.01295ZM62.4757 8.29069H70.6403C71.0291 8.29069 71.4179 8.16462 71.6771 8.03856C72.4547 7.78642 73.1027 7.15609 73.3619 6.52575C73.6211 6.14755 73.6211 5.76935 73.6211 5.39115C73.6211 5.01295 73.6211 4.63475 73.3619 4.25655C73.2323 3.87835 72.9731 3.62621 72.7139 3.37408C72.3251 3.12194 71.9363 2.99588 71.6771 2.86981C71.1587 2.61768 70.8995 2.61768 70.3811 2.61768H60.0133V11.6945H62.4757V8.29069Z" fill="#768C98"/>
<path d="M149.954 2.86981C149.565 2.86981 149.177 3.12194 148.788 3.37408C148.529 3.62621 148.269 4.00441 148.14 4.38261C148.01 4.76081 147.881 5.13902 147.881 5.51722V8.79496C147.881 9.17316 148.01 9.67743 148.14 10.0556C148.269 10.3078 148.529 10.686 148.788 10.9381C149.177 11.1902 149.565 11.3163 149.954 11.5684C150.213 11.6945 150.732 11.8206 151.12 11.8206H160.84V9.42529H150.213V8.29069H160.84V6.02149H150.213V5.01295H160.84V2.61768H151.12C150.732 2.61768 150.343 2.61768 149.954 2.86981Z" fill="#768C98"/>
<path d="M144.252 9.42529H135.569V8.29069H144.252V9.42529ZM145.678 6.90395C145.419 6.52575 145.03 6.27362 144.771 6.27362C144.382 6.02148 143.864 6.02148 143.604 6.02148H135.44V2.61768H132.977V11.5684H143.345C143.734 11.5684 144.123 11.5684 144.512 11.4424C144.9 11.3163 145.289 11.0642 145.548 10.812C145.937 10.5599 146.067 10.3078 146.326 10.0556C146.585 9.67743 146.585 9.17316 146.585 8.92103C146.585 8.41676 146.585 8.16462 146.326 7.78642C146.196 7.40822 145.937 7.15609 145.678 6.90395Z" fill="#768C98"/>
<path d="M118.591 5.01295H124.034V11.5684H126.367V5.01295H131.81V2.61768H118.591V5.01295Z" fill="#768C98"/>
<path d="M173.022 5.89542H164.598V5.01295H173.022V5.89542ZM173.022 9.29923H164.598V8.29069H173.022V9.29923ZM174.966 7.15609C175.225 6.52575 175.484 6.02148 175.484 5.39115C175.484 5.01295 175.355 4.50868 175.225 4.13048C174.966 3.87835 174.707 3.62621 174.448 3.37408C174.188 3.12194 173.8 2.86981 173.411 2.86981C173.022 2.74374 172.504 2.61768 172.115 2.61768H162.136V11.6945H172.504C173.022 11.6945 173.411 11.5684 173.67 11.4424C174.059 11.3163 174.448 11.0642 174.707 10.812C174.966 10.5599 175.225 10.3078 175.355 9.92956C175.484 9.55136 175.614 9.17316 175.614 8.79496C175.614 8.54282 175.484 8.16462 175.355 7.91249C175.225 7.66036 175.096 7.40822 174.966 7.15609Z" fill="#768C98"/>
<path d="M187.538 9.42529H179.373V5.01295H187.538V9.42529ZM189.222 3.50014C188.834 3.24801 188.574 2.99588 188.186 2.86981C187.797 2.74374 187.538 2.61768 187.019 2.61768H180.151C179.762 2.61768 179.373 2.74374 178.984 2.86981C178.595 2.86981 178.207 3.12194 177.947 3.37408C177.688 3.62621 177.429 3.87835 177.17 4.13048C176.911 4.50868 176.911 4.88688 176.911 5.26508V8.66889C176.911 9.17316 176.911 9.55136 177.17 9.80349C177.299 10.1817 177.429 10.5599 177.688 10.812C177.947 11.0642 178.336 11.1902 178.725 11.3163C179.114 11.5684 179.503 11.5684 179.891 11.5684H187.019C187.408 11.5684 187.797 11.5684 188.186 11.3163C188.574 11.1902 188.834 11.0642 189.222 10.812C189.482 10.5599 189.741 10.3078 189.741 9.92956C190 9.55136 190 9.17316 190 8.92103V5.51722C190 5.26508 190 4.76081 189.741 4.50868C189.611 4.13048 189.482 3.75228 189.222 3.50014Z" fill="#768C98"/>
<path d="M60.1423 18.1238H55.8656V15.9807H60.1423V18.1238ZM61.3087 16.2328C61.3087 16.1068 61.3087 15.8546 61.1791 15.7286C61.0495 15.6025 61.0495 15.3504 60.7903 15.3504C60.6607 15.2243 60.5311 15.0982 60.2719 15.0982C60.1423 14.9722 60.0127 14.9722 59.7535 14.9722H56.3839C56.1248 14.9722 55.9952 14.9722 55.736 15.0982C55.6064 15.0982 55.3472 15.2243 55.3472 15.3504C55.088 15.3504 55.088 15.6025 54.9584 15.7286C54.8288 15.8546 54.8288 16.1068 54.8288 16.2328V18.1238H54.5696V19.2584H61.827V18.1238H61.3087V16.2328Z" fill="#768C98"/>
<path d="M39.9261 14.8465C39.7965 14.9726 39.5373 15.0986 39.4077 15.0986C39.2781 15.2247 39.1485 15.3508 39.0189 15.6029C39.0189 15.729 38.8893 15.9811 39.0189 16.1072V17.746C39.0189 17.9982 39.0189 18.2503 39.1485 18.3764C39.2781 18.5024 39.2781 18.7546 39.5373 18.7546C39.6669 19.0067 39.7965 19.0067 40.0557 19.1328C40.1853 19.2588 40.4445 19.2588 40.5741 19.2588H45.4988V17.9982H40.1853V17.4939H45.4988V16.3593H40.1853V15.855H45.4988V14.5944H40.5741C40.3149 14.8465 40.0557 14.8465 39.9261 14.8465Z" fill="#768C98"/>
<path d="M159.415 18.2504H155.268V15.9812H159.415V18.2504ZM160.193 15.3508C160.063 15.0987 159.933 15.0987 159.674 14.9726C159.545 14.8466 159.415 14.8466 159.156 14.8466H155.786C155.657 14.8466 155.397 14.8466 155.138 14.9726C155.009 15.0987 154.879 15.0987 154.62 15.2248C154.49 15.3508 154.361 15.4769 154.231 15.603C154.231 15.8551 154.101 15.9812 154.101 16.1072V17.8722C154.101 17.9982 154.101 18.2504 154.231 18.5025C154.231 18.6286 154.361 18.7546 154.49 18.8807C154.749 19.0068 154.879 19.1328 155.009 19.2589C155.138 19.2589 155.397 19.2589 155.657 19.2589H159.156C159.415 19.2589 159.545 19.2589 159.674 19.2589C159.933 19.1328 160.063 19.0068 160.193 19.0068C160.322 18.8807 160.452 18.7546 160.581 18.5025C160.581 18.3764 160.581 18.2504 160.581 17.9982V16.3594C160.581 16.1072 160.581 15.9812 160.581 15.8551C160.452 15.603 160.322 15.3508 160.193 15.3508Z" fill="#768C98"/>
<path d="M53.922 14.8464H52.3668L51.0708 16.1071L50.9412 16.2331C50.9412 16.3592 50.9412 16.3592 50.8117 16.3592C50.6821 16.4853 50.6821 16.4853 50.6821 16.6113C50.6821 16.6113 50.5525 16.6113 50.5525 16.7374V14.8464H49.2565V16.6113C49.2565 16.6113 49.1269 16.6113 49.1269 16.4853C49.1269 16.3592 48.9973 16.3592 48.9973 16.3592C48.9973 16.2331 48.9973 16.2331 48.9973 16.1071H48.8677L47.7013 14.7203H46.0165L48.0901 16.9895L46.0165 19.2587H47.5717L48.8677 17.872C48.9973 17.7459 48.9973 17.7459 48.9973 17.7459C49.1269 17.6199 49.1269 17.6199 49.1269 17.6199L49.2565 17.4938H49.3861V19.2587H50.6821V17.3677V17.4938H50.8117C50.8117 17.4938 50.9412 17.6199 50.9412 17.7459C50.9412 17.7459 50.9412 17.872 51.0708 17.9981L52.3668 19.2587H53.7924L51.8484 17.1156L53.922 14.8464Z" fill="#768C98"/>
<path d="M152.157 16.6115H147.88V15.9812H152.157V16.6115ZM152.934 15.2248C152.675 15.0987 152.546 14.9726 152.416 14.9726C152.157 14.8466 151.898 14.8466 151.768 14.8466H146.584V19.385H147.75V17.7461H151.768C152.027 17.7461 152.286 17.7461 152.416 17.62C152.675 17.494 152.805 17.494 152.934 17.2418C153.194 17.1158 153.194 16.9897 153.323 16.8636C153.453 16.6115 153.453 16.4854 153.453 16.2333C153.453 16.1072 153.453 15.8551 153.194 15.603C153.194 15.4769 153.064 15.3508 152.934 15.2248Z" fill="#768C98"/>
<path d="M173.93 18.2504H169.782V15.9812H173.93V18.2504ZM174.707 15.3508C174.448 15.0987 174.448 15.0987 174.189 14.9726C174.059 14.8466 173.93 14.8466 173.67 14.8466H170.301C170.042 14.8466 169.782 14.8466 169.653 14.9726C169.523 15.0987 169.264 15.0987 169.134 15.2248C169.005 15.3508 168.875 15.4769 168.746 15.603C168.746 15.8551 168.616 15.9812 168.616 16.1072V17.8722C168.616 17.9982 168.616 18.2504 168.746 18.5025C168.746 18.6286 168.875 18.7546 169.005 18.8807C169.264 19.0068 169.264 19.1328 169.523 19.2589C169.653 19.2589 169.782 19.2589 170.042 19.2589H173.67C173.93 19.2589 174.059 19.2589 174.189 19.2589C174.448 19.1328 174.578 19.0068 174.707 19.0068C174.837 18.8807 174.966 18.7546 174.966 18.5025C175.096 18.3764 175.096 18.2504 175.096 17.9982V16.3594C175.096 16.1072 175.096 15.9812 174.966 15.8551C174.966 15.603 174.707 15.3508 174.707 15.3508Z" fill="#768C98"/>
<path d="M161.229 19.385H162.395V15.9812H166.672V19.385H167.838V14.8466H161.229V19.385Z" fill="#768C98"/>
<path d="M181.317 16.6115H176.911V15.9812H181.317V16.6115ZM182.094 15.2248C181.835 15.0987 181.706 14.9726 181.576 14.9726C181.317 14.8466 181.058 14.8466 180.928 14.8466H175.744V19.385H176.911V17.7461H180.928C181.187 17.7461 181.446 17.7461 181.576 17.62C181.835 17.494 181.965 17.494 182.094 17.2418C182.354 17.1158 182.354 16.9897 182.483 16.8636C182.613 16.6115 182.613 16.4854 182.613 16.2333C182.613 16.1072 182.613 15.8551 182.354 15.603C182.354 15.4769 182.224 15.3508 182.094 15.2248Z" fill="#768C98"/>
<path d="M37.9818 15.2248C37.8522 15.0987 37.7226 15.0987 37.593 14.9726C37.4634 14.8466 37.3338 14.8466 37.2042 14.8466C36.945 14.8466 36.6858 14.9726 36.5562 15.0987C36.297 15.3508 36.1674 15.4769 36.0378 15.729L34.8714 18.3764L33.8346 15.8551C33.8346 15.603 33.8346 15.603 33.7051 15.4769C33.5755 15.3508 33.5755 15.2248 33.4459 15.0987C33.3163 15.0987 33.1867 14.9726 33.0571 14.9726C32.7979 14.8466 32.4091 14.8466 32.1499 14.9726C31.7611 15.0987 31.5019 15.603 31.5019 15.9812V19.385H32.6683V16.1072L33.7051 18.3764C33.8346 18.5025 33.8346 18.6286 33.8346 18.7546C33.9642 18.8807 34.0938 19.0068 34.0938 19.1328C34.2234 19.2589 34.353 19.2589 34.4826 19.385C34.6122 19.511 34.7418 19.511 34.8714 19.511C35.1306 19.511 35.1306 19.511 35.3898 19.385C35.3898 19.2589 35.5194 19.2589 35.649 19.2589C35.649 19.1328 35.7786 19.0068 35.9082 18.8807C36.0378 18.7546 36.0378 18.6286 36.1674 18.5025L37.3338 16.1072V19.385H38.241V16.1072C38.241 15.9812 38.241 15.8551 38.1114 15.603C38.1114 15.4769 38.1114 15.3508 37.9818 15.2248Z" fill="#768C98"/>
<path d="M183.131 15.9812H185.852V19.2589H187.019V15.9812H189.74V14.8466H183.131V15.9812Z" fill="#768C98"/>
<path d="M89.5609 16.6115H85.2842V15.9812H89.5609V16.6115ZM90.2089 15.2248C90.0793 15.0987 89.9497 14.9726 89.6905 14.9726C89.5609 14.8466 89.3017 14.8466 89.1721 14.8466H83.9882V19.385H85.1546V17.7461H89.1721C89.4313 17.7461 89.6905 17.7461 89.8201 17.62C90.2089 17.494 90.4681 17.2418 90.5977 16.8636C90.7273 16.6115 90.7273 16.4854 90.7273 16.2333C90.7273 16.1072 90.5977 15.8551 90.4681 15.603C90.4681 15.4769 90.4681 15.3508 90.2089 15.2248Z" fill="#768C98"/>
<path d="M96.8191 18.2504H92.6719V15.9812H96.8191V18.2504ZM97.5966 15.3508C97.3374 15.0987 97.3374 15.0987 97.0782 14.9726C96.9487 14.8466 96.8191 14.8466 96.5599 14.8466H93.1903C92.9311 14.8466 92.6719 14.8466 92.5423 14.9726C92.4127 15.0987 92.1535 15.0987 92.0239 15.2248C91.8943 15.3508 91.7647 15.4769 91.6352 15.603C91.6352 15.8551 91.5056 15.9812 91.5056 16.1072V17.8722C91.5056 17.9982 91.5056 18.2504 91.6352 18.5025C91.6352 18.6286 91.7647 18.7546 91.8943 18.8807C92.1535 19.0068 92.1535 19.1328 92.4127 19.2589C92.5423 19.2589 92.6719 19.2589 92.9311 19.2589H96.5599C96.8191 19.2589 96.9487 19.2589 97.0782 19.2589C97.3374 19.1328 97.467 19.0068 97.5966 19.0068C97.7262 18.8807 97.8558 18.7546 97.8558 18.5025C97.9854 18.3764 97.9854 18.2504 97.9854 17.9982V16.3594C97.9854 16.1072 97.9854 15.9812 97.8558 15.8551C97.7262 15.603 97.5966 15.3508 97.5966 15.3508Z" fill="#768C98"/>
<path d="M127.534 14.9725C127.404 14.8464 127.275 14.8464 127.145 14.8464C127.015 14.7203 126.886 14.7203 126.756 14.7203C126.367 14.7203 125.979 14.8464 125.719 15.0985L122.609 18.2502V14.8464H121.443V18.1241C121.443 18.2502 121.443 18.5023 121.572 18.6284C121.572 18.7545 121.572 18.8805 121.832 19.0066C121.832 19.1327 122.091 19.2587 122.091 19.2587C122.35 19.3848 122.48 19.3848 122.609 19.3848C122.868 19.3848 122.998 19.3848 123.257 19.2587C123.387 19.2587 123.516 19.1327 123.646 19.0066L126.756 15.981V19.3848H127.923V15.8549C127.923 15.7289 127.923 15.6028 127.793 15.3507C127.663 15.2246 127.534 15.0985 127.534 14.9725Z" fill="#768C98"/>
<path d="M104.206 18.1238H100.059V15.9807H104.206V18.1238ZM105.373 16.2328C105.373 16.1068 105.373 15.8546 105.243 15.7286C105.243 15.6025 105.113 15.3504 104.984 15.3504C104.725 15.2243 104.595 15.0982 104.336 15.0982C104.206 14.9722 104.077 14.9722 103.818 14.9722H100.448C100.318 14.9722 100.059 14.9722 99.8 15.0982C99.6704 15.0982 99.5408 15.2243 99.4112 15.3504C99.152 15.3504 99.152 15.6025 99.0224 15.7286C98.8928 15.8546 98.8928 16.1068 98.8928 16.2328V18.1238H98.6336V19.2584H105.891V18.1238H105.373V16.2328Z" fill="#768C98"/>
<path d="M119.628 14.8466H120.795V19.2589H119.628V14.8466Z" fill="#768C98"/>
<path d="M67.9179 16.4854H63.5116V14.8466H62.4748V16.2333C62.4748 16.3594 62.4748 16.6115 62.4748 16.8636C62.6044 16.9897 62.734 17.2418 62.8636 17.2418C62.9932 17.3679 63.2524 17.494 63.382 17.494C63.5116 17.62 63.7708 17.62 64.03 17.62H68.0475V18.1243H62.734V19.2589H67.7883C67.9179 19.2589 68.1771 19.2589 68.3067 19.2589C68.4363 19.1328 68.6955 19.0068 68.6955 18.8807C68.9547 18.7546 68.9547 18.6286 69.0843 18.5025C69.2139 18.2504 69.2139 18.1243 69.2139 17.8722V14.8466H67.9179V16.4854Z" fill="#768C98"/>
<path d="M111.982 16.4854H107.706V14.8466H106.41V19.2589H107.706V17.62H111.982V19.2589H113.149V14.8466H111.982V16.4854Z" fill="#768C98"/>
<path d="M75.1759 16.4854H70.8992V14.8466H69.7328V19.2589H70.8992V17.62H75.1759V19.2589H76.4719V14.8466H75.1759V16.4854Z" fill="#768C98"/>
<path d="M145.548 15.2248C145.289 15.0987 145.159 14.9726 145.029 14.9726C144.77 14.8466 144.511 14.8466 144.381 14.8466H139.457V16.1072H144.77V16.6115H139.457V17.7461H144.77V18.2504H139.457V19.511H144.381C144.511 19.511 144.77 19.511 145.029 19.385C145.159 19.2589 145.289 19.2589 145.548 19.0068C145.677 18.8807 145.807 18.7546 145.807 18.6286C145.937 18.5025 146.066 18.2504 146.066 17.9982V16.2333C146.066 16.1072 146.066 15.8551 145.937 15.603C145.807 15.4769 145.677 15.3508 145.548 15.2248Z" fill="#768C98"/>
<path d="M117.814 18.2504H114.963V17.62H117.814V18.2504ZM118.592 16.8636C118.332 16.7376 118.332 16.6115 118.073 16.6115C117.814 16.4854 117.684 16.4854 117.425 16.4854H114.833V14.8466H113.667V19.2589H117.166C117.425 19.2589 117.684 19.2589 117.814 19.2589C118.073 19.1328 118.203 19.0068 118.332 19.0068C118.592 18.8807 118.592 18.7546 118.721 18.5025C118.851 18.3764 118.851 18.2504 118.851 17.9982C118.851 17.7461 118.851 17.494 118.851 17.3679C118.851 17.2418 118.721 17.1158 118.592 16.8636Z" fill="#768C98"/>
<path d="M79.5829 16.9897L80.1012 16.1072L80.6196 16.9897H79.5829ZM81.2676 15.4769C81.138 15.3508 81.0084 15.2248 81.0084 15.0987C80.8788 15.0987 80.7492 14.9726 80.6196 14.8466C80.3604 14.8466 80.3604 14.8466 80.1012 14.8466C79.9716 14.8466 79.8421 14.8466 79.7125 14.8466C79.5829 14.9726 79.4533 15.0987 79.3237 15.0987C79.3237 15.2248 79.1941 15.3508 79.0645 15.4769C79.0645 15.603 78.9349 15.729 78.8053 15.8551L76.9909 19.2589H78.2869L78.9349 18.1243H81.2676L81.9156 19.2589H83.2116L81.3972 15.8551C81.3972 15.8551 81.2676 15.603 81.2676 15.4769Z" fill="#768C98"/>
<path d="M135.18 16.9897L135.699 16.1072L136.217 16.9897H135.18ZM136.735 15.4769C136.606 15.3508 136.606 15.2248 136.476 15.0987C136.347 15.0987 136.347 14.9726 136.087 14.8466C135.958 14.8466 135.828 14.8466 135.699 14.8466C135.439 14.8466 135.439 14.8466 135.18 14.8466C135.18 14.9726 134.921 15.0987 134.921 15.0987C134.791 15.2248 134.662 15.3508 134.662 15.4769C134.532 15.603 134.403 15.729 134.403 15.8551L132.459 19.2589H133.884L134.403 18.1243H136.735L137.383 19.2589H138.679L136.865 15.8551C136.865 15.8551 136.865 15.603 136.735 15.4769Z" fill="#768C98"/>
<path d="M122.868 12.9553H126.497V13.9639H122.868V12.9553Z" fill="#768C98"/>
</svg>
