<svg width="36" height="32" viewBox="0 0 36 32" fill="none" xmlns="http://www.w3.org/2000/svg">
<path d="M7.2 32C6.69 32 6.2628 31.8293 5.9184 31.488C5.574 31.1466 5.4012 30.7247 5.4 30.2222C5.3988 29.7197 5.5716 29.2978 5.9184 28.9564C6.2652 28.6151 6.6924 28.4444 7.2 28.4444H28.8C29.31 28.4444 29.7378 28.6151 30.0834 28.9564C30.429 29.2978 30.6012 29.7197 30.6 30.2222C30.5988 30.7247 30.426 31.1472 30.0816 31.4898C29.7372 31.8323 29.31 32.0023 28.8 32H7.2ZM8.46 25.7778C7.59 25.7778 6.8178 25.4963 6.1434 24.9333C5.469 24.3704 5.0562 23.6592 4.905 22.8L3.105 11.5111C3.045 11.5111 2.9778 11.5188 2.9034 11.5342C2.829 11.5496 2.7612 11.5567 2.7 11.5555C1.95 11.5555 1.3128 11.2966 0.788404 10.7787C0.264004 10.2607 0.00120409 9.63081 4.09091e-06 8.88889C-0.00119591 8.14696 0.261604 7.51763 0.788404 7.00089C1.3152 6.48415 1.9524 6.22459 2.7 6.22222C3.4476 6.21985 4.0854 6.47941 4.6134 7.00089C5.1414 7.52237 5.4036 8.1517 5.4 8.88889C5.4 9.09629 5.3772 9.28889 5.3316 9.46666C5.286 9.64444 5.2338 9.8074 5.175 9.95555L10.8 12.4444L16.425 4.84444C16.095 4.60741 15.825 4.2963 15.615 3.91111C15.405 3.52593 15.3 3.11111 15.3 2.66667C15.3 1.92593 15.5628 1.296 16.0884 0.776892C16.614 0.257782 17.2512 -0.00118113 18 4.0496e-06C18.7488 0.00118923 19.3866 0.260744 19.9134 0.77867C20.4402 1.2966 20.7024 1.92593 20.7 2.66667C20.7 3.11111 20.595 3.52593 20.385 3.91111C20.175 4.2963 19.905 4.60741 19.575 4.84444L25.2 12.4444L30.825 9.95555C30.765 9.8074 30.7122 9.64444 30.6666 9.46666C30.621 9.28889 30.5988 9.09629 30.6 8.88889C30.6 8.14815 30.8628 7.51822 31.3884 6.99911C31.914 6.48 32.5512 6.22104 33.3 6.22222C34.0488 6.22341 34.6866 6.48296 35.2134 7.00089C35.7402 7.51881 36.0024 8.14815 36 8.88889C35.9976 9.62963 35.7354 10.2596 35.2134 10.7787C34.6914 11.2978 34.0536 11.5567 33.3 11.5555C33.24 11.5555 33.1728 11.5484 33.0984 11.5342C33.024 11.52 32.9562 11.5123 32.895 11.5111L31.095 22.8C30.945 23.6592 30.5328 24.3704 29.8584 24.9333C29.184 25.4963 28.4112 25.7778 27.54 25.7778H8.46Z" fill="#29C3EE"/>
</svg>
