<svg width="36" height="34" viewBox="0 0 36 34" fill="none" xmlns="http://www.w3.org/2000/svg">
<path d="M12.796 34H10.7995C10.5988 33.9999 10.4015 33.945 10.2253 33.8404C10.0492 33.7357 9.89997 33.5846 9.79127 33.4009C9.68256 33.2171 9.61787 33.0066 9.60309 32.7886C9.58832 32.5706 9.62393 32.352 9.70669 32.1529L14.5413 20.5267L7.28189 20.351L4.63433 23.8466C4.12957 24.538 3.72681 24.8462 2.69929 24.8462H1.35526C1.14246 24.8536 0.931142 24.8051 0.739218 24.7046C0.547294 24.6042 0.380419 24.4548 0.252735 24.2691C0.0742307 24.0068 -0.101273 23.5622 0.0697307 22.9279L1.55626 17.125C1.56751 17.0817 1.58101 17.0384 1.59601 16.9959C1.59672 16.9919 1.59672 16.9877 1.59601 16.9837C1.58055 16.9412 1.56728 16.8978 1.55626 16.8537L0.0682307 11.014C-0.0930228 10.3921 0.083231 9.95726 0.260235 9.70144C0.379094 9.52958 0.533301 9.3905 0.710458 9.29539C0.887614 9.20029 1.08278 9.15181 1.28026 9.15385H2.69929C3.46655 9.15385 4.21132 9.52899 4.64933 10.1346L7.24213 13.5714L14.5413 13.4537L9.70819 1.84793C9.62532 1.64888 9.58956 1.43036 9.60419 1.21236C9.61881 0.994366 9.68334 0.78384 9.79189 0.60003C9.90043 0.416221 10.0495 0.264994 10.2255 0.160174C10.4016 0.0553535 10.5989 0.000283923 10.7995 0H12.8178C13.0993 0.0061661 13.376 0.0813727 13.6273 0.220036C13.8785 0.358698 14.0979 0.557255 14.269 0.800961L23.648 13.224L27.9808 13.0998C28.2981 13.081 29.1771 13.0745 29.3804 13.0745C33.5249 13.0769 36 14.5432 36 17C36 17.7732 35.7165 19.2067 33.8197 20.1188C32.6999 20.6583 31.2059 20.9312 29.3789 20.9312C29.1779 20.9312 28.3011 20.9247 27.9793 20.9059L23.6472 20.78L14.245 33.2031C14.0737 33.4458 13.8546 33.6433 13.6037 33.7813C13.3529 33.9192 13.0769 33.994 12.796 34Z" fill="#29C3EE"/>
</svg>
