<svg width="24" height="32" viewBox="0 0 24 32" fill="none" xmlns="http://www.w3.org/2000/svg">
<path d="M24 8C24 12.42 18.628 16 12 16C5.372 16 0 12.42 0 8C0 3.58 5.372 0 12 0C18.628 0 24 3.58 24 8ZM23.5 13.706C20.97 16.3 16.76 18 12 18C7.24 18 3.03 16.3 0.5 13.706C0.176 14.432 0 15.2 0 16C0 20.42 5.372 24 12 24C18.628 24 24 20.42 24 16C23.9973 15.2086 23.8269 14.4267 23.5 13.706ZM23.5 21.706C20.97 24.3 16.76 26 12 26C7.24 26 3.03 24.3 0.5 21.706C0.176 22.432 0 23.2 0 24C0 28.42 5.372 32 12 32C18.628 32 24 28.42 24 24C23.9973 23.2086 23.8269 22.4267 23.5 21.706Z" fill="#29C3EE"/>
</svg>
