<svg width="38" height="34" viewBox="0 0 38 34" fill="none" xmlns="http://www.w3.org/2000/svg">
<path d="M19 34C18.4617 34 18.0107 33.8187 17.6472 33.456C17.2837 33.0933 17.1013 32.645 17.1 32.1111C17.0987 31.5772 17.2811 31.1289 17.6472 30.7662C18.0133 30.4036 18.4642 30.2222 19 30.2222H32.3V16.8111C32.3 13.1278 31.0099 10.0036 28.4297 7.43844C25.8495 4.87333 22.7063 3.59015 19 3.58889C15.2937 3.58763 12.1511 4.87081 9.5722 7.43844C6.99327 10.0061 5.70253 13.1303 5.7 16.8111V26.4444C5.7 26.9796 5.5176 27.4286 5.1528 27.7912C4.788 28.1539 4.33707 28.3346 3.8 28.3333C2.755 28.3333 1.86073 27.9637 1.1172 27.2246C0.373667 26.4854 0.00126667 25.5957 0 24.5556V20.7778C0 20.1167 0.166567 19.4952 0.4997 18.9134C0.832833 18.3317 1.2996 17.867 1.9 17.5194L2.0425 15.0167C2.29583 12.8759 2.92157 10.8926 3.9197 9.06667C4.91783 7.24074 6.16867 5.65093 7.6722 4.29722C9.17573 2.94352 10.9009 1.88889 12.8478 1.13333C14.7947 0.377778 16.8454 0 19 0C21.1546 0 23.1971 0.377778 25.1275 1.13333C27.0579 1.88889 28.7837 2.93596 30.305 4.27456C31.8263 5.61315 33.0771 7.19478 34.0575 9.01944C35.0379 10.8441 35.6712 12.8274 35.9575 14.9694L36.1 17.425C36.7017 17.7083 37.1691 18.1333 37.5022 18.7C37.8353 19.2667 38.0013 19.8648 38 20.4944V24.8389C38 25.4685 37.8341 26.0667 37.5022 26.6333C37.1703 27.2 36.7029 27.625 36.1 27.9083V30.2222C36.1 31.2611 35.7282 32.1508 34.9847 32.8912C34.2412 33.6317 33.3463 34.0013 32.3 34H19ZM13.3 20.7778C12.7617 20.7778 12.3107 20.5964 11.9472 20.2338C11.5837 19.8711 11.4013 19.4228 11.4 18.8889C11.3987 18.355 11.5811 17.9067 11.9472 17.544C12.3133 17.1813 12.7642 17 13.3 17C13.8358 17 14.2874 17.1813 14.6547 17.544C15.022 17.9067 15.2038 18.355 15.2 18.8889C15.1962 19.4228 15.0138 19.8717 14.6528 20.2357C14.2918 20.5996 13.8409 20.7803 13.3 20.7778ZM24.7 20.7778C24.1617 20.7778 23.7107 20.5964 23.3472 20.2338C22.9837 19.8711 22.8013 19.4228 22.8 18.8889C22.7987 18.355 22.9811 17.9067 23.3472 17.544C23.7133 17.1813 24.1642 17 24.7 17C25.2358 17 25.6874 17.1813 26.0547 17.544C26.422 17.9067 26.6038 18.355 26.6 18.8889C26.5962 19.4228 26.4138 19.8717 26.0528 20.2357C25.6918 20.5996 25.2409 20.7803 24.7 20.7778ZM7.6475 17.85C7.42583 14.513 8.43917 11.6481 10.6875 9.25556C12.9358 6.86296 15.7383 5.66667 19.095 5.66667C21.9133 5.66667 24.3916 6.5557 26.5297 8.33378C28.6678 10.1119 29.9579 12.3873 30.4 15.1602C27.5183 15.1275 24.8666 14.3556 22.4447 12.8444C20.0228 11.3333 18.1621 9.28704 16.8625 6.70556C16.3558 9.22407 15.2874 11.4674 13.6572 13.4357C12.027 15.4039 10.0238 16.8753 7.6475 17.85Z" fill="#29C3EE"/>
</svg>
