<svg width="213" height="28" viewBox="0 0 213 28" fill="none" xmlns="http://www.w3.org/2000/svg">
<path d="M62.2103 9.16874H63.1694V22.8298H60.3457V14.53L52.7263 23.1292H51.7408V9.46854H54.5645V17.8227L62.2103 9.16874Z" fill="#1159B6"/>
<path d="M82.6868 9.46854H92.3034V22.8298H89.5061V11.9447H85.2972L85.2707 13.2779C85.1817 16.7619 84.8131 19.2516 84.165 20.748C83.5166 22.2448 82.4205 22.993 80.8751 22.993C80.5023 22.993 80.1645 22.9386 79.8627 22.8298V20.4351C80.1466 20.4716 80.3242 20.4898 80.3957 20.4898C81.1768 20.4898 81.7363 19.891 82.0738 18.6932C82.4112 17.4959 82.5975 15.5368 82.6332 12.8156L82.6868 9.46854Z" fill="#1159B6"/>
<path d="M106.332 9.16874H107.291V22.8298H104.467V14.53L96.8481 23.1292H95.8618V9.46854H98.6863V17.8227L106.332 9.16874Z" fill="#1159B6"/>
<path d="M120.973 16.163C120.973 14.9295 120.582 13.8906 119.8 13.0468C119.019 12.2036 118.06 11.7818 116.923 11.7818C115.769 11.7818 114.801 12.2036 114.02 13.0468C113.238 13.8906 112.848 14.9295 112.848 16.163C112.848 17.3969 113.234 18.4263 114.006 19.2516C114.779 20.0772 115.742 20.4898 116.897 20.4898C118.051 20.4898 119.019 20.0724 119.8 19.2377C120.582 18.4033 120.973 17.3783 120.973 16.163ZM109.997 16.1353C109.961 14.231 110.631 12.5841 112.008 11.1968C113.384 9.80887 115.014 9.13332 116.897 9.16874C118.797 9.13332 120.44 9.81362 121.825 11.2104C123.211 12.6071 123.885 14.2489 123.85 16.1353C123.885 18.0403 123.211 19.6912 121.825 21.0883C120.44 22.4854 118.797 23.165 116.897 23.1292C115.014 23.165 113.384 22.4807 112.008 21.0748C110.631 19.6689 109.961 18.0224 109.997 16.1353Z" fill="#1159B6"/>
<path d="M76.4856 11.2104C75.1004 9.81362 73.457 9.13332 71.557 9.16874C70.0845 9.14099 68.7694 9.55472 67.6065 10.3971V14.9511C67.6065 14.981 67.6444 14.9843 67.6515 14.9551C67.8274 14.2361 68.1684 13.5992 68.68 13.0468C69.44 12.2266 70.3766 11.8048 71.4902 11.7826C72.6037 11.7599 73.6958 12.2211 74.4612 13.0478C75.2423 13.891 75.633 14.9299 75.633 16.163C75.633 17.3783 75.2419 18.4033 74.4608 19.2377C73.679 20.0724 72.7113 20.4898 71.557 20.4898C70.402 20.4898 69.4393 20.0772 68.6668 19.2516C68.1624 18.7126 67.8263 18.0856 67.6515 17.3728C67.6444 17.344 67.6065 17.3473 67.6065 17.3768V21.8844C68.7694 22.7385 70.0845 23.1573 71.557 23.1292C73.457 23.165 75.1004 22.4854 76.4856 21.0883C77.8708 19.6912 78.5454 18.0403 78.51 16.1353C78.5454 14.2489 77.8708 12.6071 76.4856 11.2104Z" fill="#1159B6"/>
<path d="M77.8919 0.564453L70.3094 3.88413C68.6822 4.5962 67.6272 6.41543 67.6272 8.2237L77.8919 3.72967V0.564453Z" fill="#1159B6"/>
<path d="M46.5709 11.2104C45.1856 9.81362 43.5423 9.13332 41.6423 9.16874C40.1702 9.14099 38.8547 9.55472 37.6918 10.3971V14.9511C37.6918 14.981 37.7297 14.9843 37.7368 14.9551C37.9127 14.2361 38.2537 13.5992 38.7653 13.0468C39.5253 12.2266 40.4622 11.8048 41.5754 11.7826C42.689 11.7599 43.7815 12.2211 44.5465 13.0478C45.3279 13.891 45.7183 14.9299 45.7183 16.163C45.7183 17.3783 45.3279 18.4033 44.5461 19.2377C43.7643 20.0724 42.7966 20.4898 41.6423 20.4898C40.4876 20.4898 39.5246 20.0772 38.7521 19.2516C38.2477 18.7126 37.9116 18.0856 37.7368 17.3728C37.7297 17.344 37.6918 17.3473 37.6918 17.3768V21.8844C38.8547 22.7385 40.1702 23.1573 41.6423 23.1292C43.5423 23.165 45.1856 22.4854 46.5709 21.0883C47.9561 19.6912 48.631 18.0403 48.5957 16.1353C48.631 14.2489 47.9561 12.6071 46.5709 11.2104Z" fill="#1159B6"/>
<path d="M47.9772 0.564453L40.3947 3.88413C38.7674 4.5962 37.7125 6.41543 37.7125 8.2237L47.9772 3.72967V0.564453Z" fill="#1159B6"/>
<path d="M131.921 22.8301V9.46853H141.139V11.9451H134.745V22.8301H131.921Z" fill="#1159B6"/>
<path d="M144.445 9.46853H154.062V22.8301H151.264V11.9451H147.055L147.029 13.2779C146.94 16.7615 146.571 19.2512 145.923 20.7484C145.275 22.2448 144.178 22.993 142.633 22.993C142.26 22.993 141.922 22.9386 141.621 22.8301V20.435C141.904 20.4716 142.082 20.4898 142.153 20.4898C142.935 20.4898 143.494 19.891 143.832 18.6936C144.169 17.4962 144.356 15.5375 144.391 12.8156L144.445 9.46853Z" fill="#1159B6"/>
<path d="M167.744 16.163C167.744 14.9295 167.352 13.8906 166.571 13.0467C165.79 12.2036 164.831 11.7818 163.694 11.7818C162.54 11.7818 161.572 12.2036 160.791 13.0467C160.009 13.8906 159.618 14.9295 159.618 16.163C159.618 17.3969 160.004 18.4263 160.777 19.2512C161.55 20.0776 162.513 20.4898 163.668 20.4898C164.822 20.4898 165.79 20.0724 166.571 19.2384C167.352 18.4033 167.744 17.3787 167.744 16.163ZM156.768 16.1356C156.732 14.231 157.402 12.5841 158.779 11.1968C160.155 9.80887 161.785 9.13332 163.668 9.16947C165.568 9.13332 167.211 9.81361 168.596 11.2104C169.981 12.6071 170.656 14.2489 170.621 16.1356C170.656 18.0403 169.981 19.6916 168.596 21.0883C167.211 22.4854 165.568 23.1654 163.668 23.1292C161.785 23.1654 160.155 22.4811 158.779 21.0745C157.402 19.6686 156.732 18.0224 156.768 16.1356Z" fill="#1159B6"/>
<path d="M196.795 9.46853H199.779L193.411 24.3536C192.861 25.6233 192.204 26.5533 191.44 27.1431C190.81 27.6291 190.059 27.915 189.188 28.0001H187.918C187.419 27.961 186.933 27.8792 186.459 27.7554V25.3333C187.187 25.4056 187.702 25.4421 188.004 25.4421C189.353 25.4421 190.304 24.7892 190.854 23.4827L191.387 22.2313L186.166 9.46853H189.176L192.932 19.1833L196.795 9.46853Z" fill="#1159B6"/>
<path d="M200.559 16.1356C200.523 14.231 201.198 12.5841 202.584 11.1968C203.969 9.80887 205.603 9.13332 207.485 9.16947C209.936 9.16947 211.774 10.2032 213 12.2715L211.028 13.8497C210.105 12.4891 208.932 11.8089 207.512 11.8089C206.339 11.8089 205.363 12.2266 204.582 13.0606C203.799 13.8954 203.41 14.9204 203.41 16.1356C203.41 17.3695 203.799 18.4033 204.582 19.2384C205.363 20.0724 206.339 20.4898 207.512 20.4898C208.898 20.4898 210.069 19.8183 211.028 18.476L213 20.0272C212.414 21.0069 211.641 21.7686 210.682 22.3127C209.723 22.8572 208.658 23.1292 207.485 23.1292C205.549 23.1292 203.911 22.4489 202.57 21.0883C201.229 19.7274 200.559 18.0772 200.559 16.1356Z" fill="#1159B6"/>
<path d="M182.34 11.2104C180.955 9.81361 179.312 9.13332 177.412 9.16947C175.94 9.14099 174.624 9.55471 173.461 10.3975V14.9518C173.461 14.9814 173.499 14.9847 173.507 14.9554C173.683 14.2364 174.023 13.5992 174.535 13.0467C175.295 12.2266 176.231 11.8045 177.345 11.7826C178.458 11.7603 179.551 12.2211 180.316 13.0478C181.097 13.891 181.488 14.9299 181.488 16.163C181.488 17.3787 181.097 18.4033 180.316 19.2384C179.534 20.0724 178.566 20.4898 177.412 20.4898C176.257 20.4898 175.294 20.0776 174.522 19.2512C174.017 18.7129 173.681 18.0856 173.507 17.3732C173.499 17.3443 173.461 17.3472 173.461 17.3772V21.8851C174.624 22.7385 175.94 23.1573 177.412 23.1292C179.312 23.1654 180.955 22.4854 182.34 21.0883C183.726 19.6916 184.4 18.0403 184.365 16.1356C184.4 14.2489 183.726 12.6071 182.34 11.2104Z" fill="#1159B6"/>
<path d="M183.747 0.564453L176.164 3.88413C174.537 4.59619 173.482 6.41543 173.482 8.2237L183.747 3.72967V0.564453Z" fill="#1159B6"/>
<path d="M13.2299 24.5119C7.7352 24.3269 3.28791 19.737 3.16061 14.1225C3.08039 10.5858 4.69924 7.42356 7.23921 5.4284C9.09873 7.83672 10.2653 10.8277 10.4277 14.0857C10.4404 14.3458 10.4469 14.6071 10.4469 14.8701C10.4469 15.6748 10.3847 16.4648 10.2665 17.2362C10.2545 17.3152 10.322 17.3814 10.3989 17.366C11.3322 17.179 12.2961 17.0804 13.2823 17.0804C13.3467 17.0804 13.4108 17.0824 13.4747 17.0831C16.6896 17.1246 19.6628 18.2085 22.0861 20.0174C20.1331 22.8289 16.88 24.6348 13.2299 24.5119ZM23.5128 17.0985C20.6757 15.1073 17.2583 13.9193 13.5772 13.8587C13.3793 10.1258 12.0924 6.68433 10.0367 3.85917C9.37038 2.94354 8.62364 2.09292 7.80677 1.31787C6.80616 1.79973 5.87231 2.40279 5.02325 3.10865C1.9604 5.65412 0 9.53305 0 13.8715C0 21.5204 6.09208 27.7434 13.5801 27.7434C18.0135 27.7434 21.9569 25.562 24.437 22.1954C25.0949 21.3021 25.65 20.3256 26.0837 19.2838C25.295 18.4781 24.4349 17.7455 23.5128 17.0985Z" fill="#1159B6"/>
<path d="M13.1197 22.591C11.106 22.591 9.24864 21.9117 7.75204 20.7674C5.91509 19.3628 4.62217 17.2567 4.25493 14.8371C4.24748 14.7875 4.20617 14.7505 4.15669 14.7505C4.09712 14.7505 4.04981 14.8032 4.05581 14.8641C4.30777 17.4105 5.51855 19.667 7.3125 21.2536C8.98683 22.735 11.1696 23.6328 13.5593 23.6328C16.3392 23.6328 18.8395 22.4185 20.5854 20.4825C20.6805 20.3778 20.6632 20.2102 20.546 20.1319C20.3282 19.9872 20.1067 19.8483 19.8814 19.7148C19.7909 19.6611 19.677 19.68 19.6047 19.7573C17.9712 21.5024 15.6705 22.591 13.1197 22.591Z" fill="#29C3EE"/>
<path d="M26.7591 10.5214C26.7584 10.5189 26.7565 10.5167 26.7543 10.5155C25.3531 9.79959 23.7717 9.39648 22.0986 9.39648C19.7964 9.39648 17.6695 10.16 15.9448 11.451C15.9364 11.4574 15.944 11.4706 15.9537 11.466C17.1279 10.8671 18.4516 10.5283 19.8533 10.5283C21.8786 10.5283 23.7417 11.2327 25.2241 12.4128C25.2698 12.4491 25.2253 12.522 25.1742 12.4945C24.0083 11.8762 22.6841 11.5263 21.2798 11.5263C20.4631 11.5263 19.6744 11.6466 18.9274 11.8671C20.3733 12.1377 22.1733 12.649 23.9994 13.6128C25.0209 14.152 26.0499 14.8331 27.0294 15.6928C27.0346 15.6975 27.0428 15.6943 27.044 15.6874C27.1201 15.0927 27.1603 14.4869 27.1603 13.8716C27.1603 12.7168 27.0205 11.595 26.7591 10.5214Z" fill="#FDC62E"/>
<path d="M19.8534 10.5283C18.5744 10.5283 17.3607 10.8102 16.266 11.3146C16.2232 11.334 16.1891 11.2734 16.2278 11.2464C17.8999 10.0796 19.9209 9.39652 22.0986 9.39652C23.7735 9.39652 25.3558 9.8006 26.7583 10.5175C25.2857 4.4837 19.9365 0 13.5802 0C12.7607 0 11.958 0.0743401 11.1781 0.217132C11.8979 0.933052 12.7559 1.93235 13.5379 3.22581C14.7677 5.26071 15.8067 8.02233 15.8098 11.5524C15.8098 11.5583 15.8101 11.5637 15.8101 11.5695C15.8101 11.5695 15.8711 11.5666 15.9845 11.5666C16.1925 11.5666 16.584 11.574 17.1112 11.6186C17.6079 11.6606 18.2264 11.7356 18.9275 11.8672C19.6744 11.6466 20.4632 11.5264 21.2798 11.5264C22.7111 11.5264 24.059 11.8897 25.241 12.5303C25.2845 12.5539 25.3241 12.4933 25.2857 12.4621C23.7934 11.2521 21.9065 10.5283 19.8534 10.5283Z" fill="#FF6F00"/>
</svg>
