<svg width="32" height="32" viewBox="0 0 32 32" fill="none" xmlns="http://www.w3.org/2000/svg">
<rect width="32" height="32" rx="8" fill="black"/>
<path d="M16.537 17.8842H9.13791V14.835H16.537C16.9692 14.835 17.2697 14.9135 17.4205 15.0505C17.5713 15.1875 17.6648 15.4416 17.6648 15.8128V16.9076C17.6648 17.2987 17.5713 17.5528 17.4205 17.6898C17.2697 17.8268 16.9692 17.8853 16.537 17.8853V17.8842ZM17.0446 11.9604H6V25H9.13791V20.7577H14.9208L17.6648 25H21.1786L18.1532 20.7378C19.2686 20.5656 19.7694 20.2097 20.1825 19.623C20.5956 19.0364 20.8027 18.0985 20.8027 16.8467V15.869C20.8027 15.1266 20.7273 14.5399 20.5956 14.0903C20.4639 13.6407 20.2388 13.2496 19.9191 12.8983C19.5815 12.5657 19.2056 12.3315 18.7542 12.1746C18.3029 12.0376 17.739 11.9592 17.0446 11.9592V11.9604Z" fill="white"/>
<path d="M23.5893 11.9592C24.9207 11.9592 26 10.849 26 9.47959C26 8.11015 24.9207 7 23.5893 7C22.2579 7 21.1786 8.11015 21.1786 9.47959C21.1786 10.849 22.2579 11.9592 23.5893 11.9592Z" fill="white"/>
</svg>
