<svg width="32" height="32" viewBox="0 0 32 32" fill="none" xmlns="http://www.w3.org/2000/svg">
<rect width="32" height="32" rx="8" fill="#1D60A2"/>
<path d="M18.3217 15.7342C17.9194 15.5687 17.9194 14.9367 17.8944 14.4966C17.7939 12.9288 18.2967 10.5353 17.6933 9.51771C17.2661 8.91208 15.204 8.96754 13.9473 9.05029C13.5949 9.10574 13.1676 9.18761 12.8659 9.3531C12.5642 9.51859 12.2625 9.79324 12.2625 10.0406C12.2625 10.398 13.0172 10.3434 13.2932 10.8108C13.5949 11.3064 13.5949 12.3786 13.5949 13.2589C13.5949 14.2765 13.4436 15.6251 13.0671 15.6796C12.4886 15.7069 12.1619 15.074 11.8602 14.6066C11.2568 13.699 10.6534 12.5705 10.2004 11.4702C9.97434 10.8927 9.84803 10.2598 9.52137 10.0124C9.01852 9.62687 8.11339 9.59958 7.2332 9.62687C6.42864 9.65416 5.27168 9.54412 5.0456 10.067C4.8694 10.6445 5.24674 11.1946 5.44788 11.6629C6.47852 14.111 7.5848 16.2571 8.9429 18.2923C10.2004 20.1902 11.3815 21.7034 13.6946 22.5009C14.3487 22.721 17.2146 23.3539 17.7931 22.5009C17.9942 22.1708 17.9443 21.4279 18.0449 20.8777C18.1455 20.3275 18.271 19.7773 18.7489 19.75C19.1512 19.7228 19.3773 20.1074 19.6291 20.383C19.9058 20.6858 20.1319 20.9331 20.3331 21.2087C20.811 21.7315 21.3138 22.4463 21.9173 22.7219C22.7468 23.1074 24.0292 22.9974 25.2361 22.9419C26.2168 22.9146 26.9208 22.6946 26.9964 22.0617C27.0471 21.5661 26.5435 20.8513 26.2418 20.4384C25.4871 19.4208 25.1355 19.118 24.2802 18.1823C23.9029 17.7694 23.425 17.3293 23.425 16.8346C23.4001 16.5318 23.6261 16.2571 23.8273 15.9543C24.7075 14.5238 25.5877 13.5062 26.3922 12.0203C26.6183 11.5802 27.1469 10.5626 26.9458 10.067C26.7197 9.51683 25.4621 9.68144 24.6825 9.68144C23.6768 9.68144 22.3694 9.5987 22.1176 9.81877C21.6397 10.1762 21.4385 10.7545 21.2125 11.3047C20.7096 12.5705 20.0306 13.8628 19.3266 14.8258C19.0747 15.1559 18.5976 15.8434 18.3209 15.7333L18.3217 15.7342Z" fill="white"/>
</svg>
