<svg width="32" height="32" viewBox="0 0 32 32" fill="none" xmlns="http://www.w3.org/2000/svg">
<rect width="32" height="32" rx="8" fill="#E0333C"/>
<path fill-rule="evenodd" clip-rule="evenodd" d="M13.7873 18.9556V12.5421C15.9787 13.6134 17.676 14.6483 19.6833 15.7642C18.0277 16.7181 15.9787 17.7885 13.7873 18.9556ZM26.0001 9.35232C25.6221 8.83488 24.9778 8.4321 24.2919 8.29875C22.2758 7.90098 9.69808 7.89985 7.68307 8.29875C7.13302 8.40588 6.64322 8.66484 6.22247 9.06717C4.4496 10.7768 5.00513 19.9448 5.43246 21.4299C5.61216 22.0727 5.84446 22.5363 6.13701 22.8406C6.51394 23.2429 7.03001 23.5199 7.62279 23.6442C9.2828 24.0009 17.8348 24.2004 24.2568 23.6977C24.8485 23.5906 25.3722 23.3047 25.7853 22.8852C27.4245 21.1825 27.3128 11.4996 26.0001 9.35232Z" fill="white"/>
</svg>
